<svg width="24" height="24" viewBox="0 0 24 24" fill="none" xmlns="http://www.w3.org/2000/svg">
<path d="M5.19714 20.9343L14.2557 12.4086L18.5186 16.6714M5.19714 20.9343H15.8543C17.62 20.9343 19.0514 19.5029 19.0514 17.7371V12.4086M5.19714 20.9343C3.43141 20.9343 2 19.5029 2 17.7371V7.08001C2 5.31427 3.43141 3.88287 5.19714 3.88287H12.1243M17.9857 9.02859L17.9857 6.01429M17.9857 6.01429L17.9857 3M17.9857 6.01429L14.9714 6.01429M17.9857 6.01429L21 6.01429M8.39428 8.67858C8.39428 9.56144 7.67858 10.2771 6.79571 10.2771C5.91285 10.2771 5.19714 9.56144 5.19714 8.67858C5.19714 7.79571 5.91285 7.08001 6.79571 7.08001C7.67858 7.08001 8.39428 7.79571 8.39428 8.67858Z" stroke="black" stroke-width="2" stroke-linecap="round" stroke-linejoin="round"/>
</svg>
