<svg width="24" height="24" viewBox="0 0 24 24" fill="none" xmlns="http://www.w3.org/2000/svg">
<g clip-path="url(#clip0_6_82)">
<path d="M19.5789 10.4842V7.4421C19.5789 6.88982 19.1312 6.4421 18.5789 6.4421H11.9089C11.6437 6.4421 11.3894 6.33675 11.2018 6.14921L9.76657 4.71394C9.57903 4.52641 9.32468 4.42105 9.05946 4.42105H3.39999C2.84771 4.42105 2.39999 4.86877 2.39999 5.42105V18.5789C2.39999 19.1312 2.84771 19.5789 3.39999 19.5789H4.57616C5.04859 19.5789 5.43157 19.196 5.43157 18.7235C5.43157 18.621 5.45002 18.5192 5.48604 18.4232L8.21982 11.1331C8.36619 10.7428 8.73931 10.4842 9.15615 10.4842H20.2126C20.8951 10.4842 21.3771 11.1529 21.1612 11.8004L18.7963 18.8952C18.6602 19.3035 18.2781 19.5789 17.8477 19.5789H4.42105" stroke="black" stroke-width="2" stroke-linecap="round" stroke-linejoin="round"/>
</g>
<defs>
<clipPath id="clip0_6_82">
<rect width="24" height="24" fill="white"/>
</clipPath>
</defs>
</svg>
